<svg width="40" height="40" viewBox="0 0 40 40" fill="none" xmlns="http://www.w3.org/2000/svg">
<g id="Arrow   Right Circle">
<path id="Vector" d="M0 20C0 8.95557 8.95557 0 20 0C31.0444 0 40 8.95557 40 20C40 31.0458 31.0451 40 20 40C8.95491 40 0 31.0458 0 20ZM3 20C3 29.3889 10.6117 37 20 37C29.3883 37 37 29.3889 37 20C37 10.6124 29.3876 3 20 3C10.6124 3 3 10.6124 3 20ZM15.9076 12.1686L16.0525 12C16.5838 11.4664 17.4171 11.4161 18.0052 11.8506L18.1738 11.9955L25.1458 18.9375C25.6811 19.4705 25.7297 20.3068 25.2918 20.8949L25.1458 21.0633L18.1738 28.0053C17.5867 28.5899 16.637 28.5878 16.0525 28.0008C15.5211 27.4671 15.4745 26.6337 15.9114 26.0474L16.057 25.8795L21.96 20.0024L16.057 14.1213C15.5233 13.59 15.4731 12.7567 15.9076 12.1686Z" fill="#114E86"/>
</g>
</svg>
